<svg xmlns="http://www.w3.org/2000/svg" width="436" height="318" viewBox="0 0 436 318"><defs><style>.a,.r{fill:#fff;}.b{fill:#f1f2f2;}.c{fill:#eac1a4;}.d{fill:#8c9498;}.e{fill:#3b455a;}.f{opacity:0.26;}.g{fill:none;}.h{fill:#d7e8f4;}.i{fill:#7db5db;}.j{fill:#8c9295;}.k{fill:#ebceb1;}.l{fill:#00aa54;}.m{opacity:0.2;}.n{fill:#fffdf1;}.o{fill:#000100;opacity:0.1;}.p{fill:#29313f;opacity:0.5;}.q{opacity:0.06;}.r{opacity:0.34;}.s{fill:#93aa9d;}.t{fill:#22252d;}.u{fill:#f4f4f2;}.v{fill:#dfe5e5;}.w{opacity:0.12;}.x{fill:#cdced0;}.y{fill:#202020;}</style></defs><g transform="translate(-0.42 0.138)"><g transform="translate(0.25)"><rect class="a" width="436" height="318" transform="translate(0.17 -0.138)"/></g><g transform="translate(31.877 255.811)"><path class="b" d="M255.709,644.112a311.48,311.48,0,0,0-33.57,1.546c-4.214.469-8.34,1.5-12.564,1.916-8.437.83-16.723,2.38-25.19,3.095-6.818.575-13.665.915-20.464,1.646a72.031,72.031,0,0,1-19.755-.6c-4.682-.837-9.386-1.309-13.99-2.654a57.2,57.2,0,0,0-16.111-2.541c-7.652.055-15.1.062-22.425,2.719a22.06,22.06,0,0,0-7.669,4.423c-4.468,4.48-5.073,15.661-.612,20.308,7.515,7.821,23.553,10.89,34.087,11.035,11.543.158,22.755-.7,34.315-1.2,10.741-.468,21.455-1.134,32.214-1.111,21.974.048,43.951,0,65.885-1.467,20.608-1.379,41.267-.906,61.92-.906,21.179,0,42.214.167,63.24,2.981,9.161,1.226,18.494,1.655,27.7,2.515,8.246.77,16.169-.015,24.383-.726a58.208,58.208,0,0,0,20.013-5.362c4.959-2.37,13.8-9.734,15.322-15.391,4.263-15.86-60.09-15.479-69.971-15.444-11.053.041-22.194.4-33.239-.017a78.407,78.407,0,0,1-13.758-2.08c-4.516-.991-9.067-.739-13.647-1.156-19.1-1.737-38.242-1.483-57.4-1.483C268.186,644.148,261.947,644.093,255.709,644.112Z" transform="translate(-80.3 -644.108)"/></g><g transform="translate(29.906 29.541)"><g transform="translate(53.012 95.059)"><path class="c" d="M213.268,319.244l-4.449-3.582,1.478-1.932,3.6,1.792.267-1.232,3.427,3.52-1.26,2.211Z" transform="translate(-208.819 -313.73)"/><g transform="translate(5.748 2.506)"><path class="d" d="M268.965,320.447l-19.944,10.233L225.564,320.04l-2.272,4.514,24.856,18.583L275.42,336Z" transform="translate(-223.292 -320.04)"/></g></g><g transform="translate(144.462)"><g transform="translate(48.223)"><path class="e" d="M562.644,79.379q-.015-1.222-.029-2.444l1.126-2.317a.811.811,0,0,1,1.156.011l.994,2.268.029,2.444c.91-.011,2.4.668,2.411,1.525a1.6,1.6,0,0,1-1.629,1.572l-.744.008,1,82.829c.057,4.674,2.638,8.531,6.275,8.406,2.82-.1,5.251-2.464,5.619-6.285a1.712,1.712,0,0,1,1.715-1.516h.065a1.677,1.677,0,0,1,1.751,1.813c-.655,5.436-5.025,9.37-9.218,9.419a8.381,8.381,0,0,1-7.578-4.062c-1.977-3.282-1.9-6.917-1.941-10.543q-.062-5.152-.124-10.3-.087-7.194-.174-14.389l-.2-16.4q-.1-8.179-.2-16.357-.086-7.121-.172-14.242-.05-4.162-.1-8.326l-.51.006a1.6,1.6,0,0,1-1.666-1.534C560.494,80.1,561.734,79.389,562.644,79.379Z" transform="translate(-560.504 -74.381)"/><path class="f" d="M567.139,190.309l3.27-3.394-.067-5.544-3.312.039Z" transform="translate(-564.439 -138.879)"/></g><g transform="translate(0 6.886)"><path class="g" d="M516.9,203.193c-.111.054-.221.107-.33.162-.159-.052-.319-.1-.481-.153l.508-.006Z" transform="translate(-485.508 -158.921)"/><path class="h" d="M592.937,135.125l-.545-3.045a70.766,70.766,0,0,0-12.545-29.271L571.8,91.787a51.518,51.518,0,0,1,44.223,27.372,48.915,48.915,0,0,1,5.072,15.719,51.041,51.041,0,0,0-14.192-1.749A52.246,52.246,0,0,0,592.937,135.125Z" transform="translate(-519.088 -91.761)"/><path class="h" d="M471.453,129.43,470.175,136l-.508.006a50.26,50.26,0,0,0-15.287-2.072,51.32,51.32,0,0,0-15.3,2.412,48.974,48.974,0,0,1,6.729-19.813,51.625,51.625,0,0,1,43.766-24.805c.551-.007,1.1,0,1.647.009l-6.215,9.09C477.368,110.211,473.922,119.671,471.453,129.43Z" transform="translate(-439.082 -91.72)"/><path class="i" d="M559.582,132.058l.545,3.045-.136.041c-5.365-2.252-12.694-3.494-20.772-3.4-8.506.1-16.164,1.659-21.545,4.267l-.3,0,1.278-6.566c2.469-9.759,5.915-19.22,13.556-28.607l6.215-9.09c.189,0,.378.009.567.014l8.051,11.021A70.767,70.767,0,0,1,559.582,132.058Z" transform="translate(-486.278 -91.739)"/></g></g><g transform="translate(203.413 73.203)"><g transform="translate(0 22.383)"><path class="c" d="M597.436,323.2l-2.411-2.231-.039-2.867-.623-.3-.409.738-.726-2.371-1.705-1.113-2.548.949-1.461,2.361,1.229,2.381,2.711,1.734,3.165,3.195Z" transform="translate(-587.514 -315.06)"/><path class="e" d="M605.328,327.941l-4.337,5.038,11.633,17.33,4.33,1.37,18.441-14.424-4.932-9.876-13.755,11.464Z" transform="translate(-595.639 -322.486)"/></g><g transform="translate(22.344 74.282)"><g transform="translate(12.821 0.533)"><path class="e" d="M747.152,667l.644,2.9-5.1,4.126-3.517-2.283,2.23-3.512,5.1-4.126Z" transform="translate(-714.107 -577.911)"/><path class="j" d="M691.254,447.079l5.694,12.879.537,36.236,11.709,38.977-5.445,2.368-23.893-45.257-2.719-14.335-1.081-30.19Z" transform="translate(-676.056 -447.079)"/></g><path class="j" d="M644.223,449.157l-.448,37.975,7.3,48.964h5.61l3.543-45.179,7.677-45.179Z" transform="translate(-643.775 -445.737)"/><path class="e" d="M662.377,671.6v2.975l-6.067,2.975-3.034-2.975,3.034-2.975Z" transform="translate(-649.503 -581.899)"/></g><path class="e" d="M643.912,324.05l14.9-.541s8.915,7.672,13.523,27.609c4.692,20.3-.867,49.526-.867,49.526s-39.982-5.227-46.538-6.034l10-40.082Z" transform="translate(-610.072 -297.77)"/><g transform="translate(22.174)"><path class="c" d="M675.639,300.847l5.221-.5a25.221,25.221,0,0,0-.277-4.09c1.451-.5,3.128-1.247,3.383-2.733a4.178,4.178,0,0,0-.084-1.415l-1.015-5.805a5.113,5.113,0,0,0-.612-1.932,4.466,4.466,0,0,0-3.109-1.654,10.972,10.972,0,0,0-8.755,2.079,4.664,4.664,0,0,0-1.481,1.91,6.188,6.188,0,0,0,.21,3.678q.445,1.672.89,3.343c.341,1.282.835,2.739,2.093,3.221a11.3,11.3,0,0,1,2.062.561C675.231,298.176,675.085,299.732,675.639,300.847Z" transform="translate(-658.633 -273.074)"/><path class="e" d="M643.351,267.134a16.161,16.161,0,0,1,.426-3.879c.464-2.079,2.965-3.013,5.129-3.16,4.675-.319,9.187-2.4,13.752-.792,2.609.917,6.115,1.137,8.476,2.43a6.909,6.909,0,0,1,2.385,2.313,10.136,10.136,0,0,1,.014,10.9,14.744,14.744,0,0,1-1.637,2.019c-1.234,1.309-2.709,2.925-4.4,3.408-.039-1.487,1.349-6.172.186-7.392-1.845-1.936-6.022-1.267-8.315-.794-2.5.516-4.731,2.249-7.21,2.617a9.483,9.483,0,0,1-5.574-1.5A6.914,6.914,0,0,1,643.351,267.134Z" transform="translate(-643.347 -258.701)"/></g><path class="a" d="M657.34,328.277l-15.667,61.464-1.284,8.061,19.519,2.519s-.771-29.433-.514-33.357,3.152-12.412,3.6-21.557c.256-5.29,1.97-14.792.77-17.885Z" transform="translate(-619.389 -300.189)"/></g><g transform="translate(95.255 116.217)"><path class="k" d="M423.2,371.619l4.19-2.807L426.245,367l-3.3,1.3-.137-1.1-3.286,2.83.931,2.038Z" transform="translate(-378.081 -367.004)"/><path class="d" d="M357.405,371.186l1.637,4.136c.224.679-15.646,9.465-17.059,10.1-3.111,1.389-8.754,4.666-8.754,4.666-4.327.053-12.475-2.121-15.2-3.269-1.1-.463-1.878-2.844-2.543-3.791-.844-1.2.231-3.318.954-4.3a10.265,10.265,0,0,1,6.24-3.92,5.976,5.976,0,0,1,2.7.013c.9.246,2.056-3.828,2.821-3.3,1.359.94,2.113,7.142,3.731,7.682C333.969,379.882,356.925,370.213,357.405,371.186Z" transform="translate(-315.182 -369.484)"/></g><path class="d" d="M275.027,323.532l-.28.011c-4.452.212-9.843,5.945-12.966,9.328-8.061,8.733-13.692,18.741-17.906,29.93-2.269,6.025-4.273,12.148-6.151,18.305-.519,1.7-4.163,17.258-5.046,17.369,9.061-1.135,18.185-2.023,27.21-1.408s18,2.785,25.74,7.453a417.544,417.544,0,0,0,7.851-60.873,51.723,51.723,0,0,0,.259-7.322c-.268-2.77-1.66-4.018-3.239-6.121a13.987,13.987,0,0,0-1.748-2.041C285.262,325.025,279.692,323.383,275.027,323.532Z" transform="translate(-170.19 -224.575)"/><g transform="translate(73.222 160.103)"><path class="k" d="M259.7,484.188l9.43,37.54.211,27.67,4.579.971,1.789-25.734,4.5-47.128Z" transform="translate(-259.705 -477.507)"/><path class="e" d="M288.051,661.448l.74,2.806-.649,5.507-3.711.006-1.39-7.96.431-1.331Z" transform="translate(-273.773 -587.81)"/></g><g transform="translate(90.295 161.138)"><path class="k" d="M321.625,481.613l.832,32.437-4.415,45.814-4.52.325-1.624-42-9.205-38.076Z" transform="translate(-302.693 -480.113)"/><path class="e" d="M333.167,678.992l6.088,3.171-.483,2.789-10.756-1.292.517-4.014Z" transform="translate(-317.959 -600.006)"/></g><path class="e" d="M323.683,489.055l3.064,37.477-3.117,25.7-12.244-.68L309.2,522.333l-5.295-31.858.822-4.96,17.646.253Z" transform="translate(-213.131 -322.232)"/><path class="e" d="M278.763,521.039l-1.439,26.881-10.643-.535.216-25.494-6.711-32.016,1.531-8.949,17.9,1.093Z" transform="translate(-186.774 -319.465)"/><path class="a" d="M299.281,394.9c-10.921-1.848-28.615-6.324-39.535-8.171,5.715-18.609,14.811-39.282,25.416-55.628,1.923-2.965,4.327-6.059,7.769-6.762,3.688-.753,10.154,1.631,10.87,5.676,1.048,5.919-1.127,14.082-1.8,20.067C300.483,363.624,301.921,381.521,299.281,394.9Z" transform="translate(-186.508 -224.984)"/><g transform="translate(101.39 76.788)"><path class="c" d="M350.938,286.351c4.107-7.01,13.206-2.457,13.8,4.554.389,4.618-4.189,9.7-8.92,10.062q-.145,1.666-.433,3.315l-3.589-.961c-.37-.1-.794-.246-.914-.6a1.135,1.135,0,0,1,.056-.67l.649-2.216c-.08-.055-.16-.111-.24-.171a7.621,7.621,0,0,1-2.751-6.468A15.2,15.2,0,0,1,350.938,286.351Z" transform="translate(-341.452 -276.844)"/><path class="e" d="M340.379,284.144c-1.984,1.866-2.167,4.855-2.3,7.422-.116,2.276-.461,3.636-2.924,2.994-1.388-.361-3.865-.978-4.452-2.469-.444-1.129,1.186-3.067,2.051-3.725.66-.5,1.649-.42,2.3-.939a2.653,2.653,0,0,0,.612-.808,13.553,13.553,0,0,0,1.431-3.876,13.7,13.7,0,0,1,.651-2.73c.538-1.251,2.15-2.2,3.194-3.067,1.943-1.611,6.354-2.839,7.951.038a3.913,3.913,0,0,1,.306,2.186,3.253,3.253,0,0,1-.285,1.3c-.824,1.581-2.43,1.091-3.841,1.317A9.125,9.125,0,0,0,340.379,284.144Z" transform="translate(-330.63 -272.264)"/><path class="e" d="M373.907,285.981c-.506,1.16-1.765,2.09-1.643,3.346a5.411,5.411,0,0,0,.612,1.566,4.391,4.391,0,0,1-.544,4.362l6.953,3.262a2.348,2.348,0,0,0,1.105.309c.827-.048,1.323-.9,1.668-1.633.678-1.455,1.373-3.028,1.071-4.6-.14-.728-.49-1.406-.627-2.135-.662-3.507,3.622-6.85,2.31-10.176-.586-1.484-2.118-2.363-3.156-3.587-1.809-2.133-2.067-5.27-4.013-7.283-3.675-3.8-10.886-.689-10.333,4.593C367.761,278.312,375.943,281.311,373.907,285.981Z" transform="translate(-352.724 -267.727)"/></g><path class="d" d="M280.863,326.324s-18.886,44.67-14.715,56.064,6.111,15.808,6.111,15.808l-28.918,1.185S261.8,334.123,280.863,326.324Z" transform="translate(-176.618 -226.264)"/><g transform="translate(45.906 109.235)"><path class="l" d="M424.932,418.752,412.118,405.4l-.405-.02q-1.026-2.4-2.052-4.794-5.416-12.655-10.831-25.31c-3.175-7.42-5.7-19.958-15.642-20.515l-94.466-5.292a27.234,27.234,0,0,0-25.48,14.667l-17.653,33.237-1.574-.076L211.8,405.312a31.884,31.884,0,0,0-19.811,27.543L190.925,451.1l239.85,13.437,1.511-25.958A26.411,26.411,0,0,0,424.932,418.752Z" transform="translate(-190.925 -349.426)"/><path class="h" d="M550.1,415.789l63.025,3.531-12.3-35.424a4.524,4.524,0,0,0-4-3.075l-44.547-2.495Z" transform="translate(-407.451 -366.848)"/><path class="h" d="M425.2,373.689l-36.1-2.023a19.857,19.857,0,0,0-18.579,10.694l-13.332,25.1,65.834,3.688Z" transform="translate(-291.156 -362.815)"/><g class="m" transform="translate(79.236 11.816)"><path class="n" d="M650.051,395.218q1.218.731,2.436,1.465l-3.365-9.693a4.524,4.524,0,0,0-4-3.075l-15.432-.865C636.45,387.147,643.27,391.152,650.051,395.218Z" transform="translate(-534.668 -381.512)"/><path class="n" d="M609.14,401.213c-11.21-6.8-22.972-14.453-34.051-21.451l-14.491-.584c9.436,8.913,21.541,17.043,32.229,24.352,6.424,4.393,13,8.574,19.762,12.452,2.216,1.271,4.545,2.441,6.879,3.622l-5.324-15.334Q611.646,402.733,609.14,401.213Z" transform="translate(-493.016 -379.178)"/><path class="n" d="M432.578,400.153c-4.685-3.361-9.561-6.492-14.474-9.522-4.976-3.068-10.021-6.151-15.27-8.751-1.73-.857-3.485-1.663-5.233-2.475a20.385,20.385,0,0,0-7.039,7.639l-.129.244c5.23,4.043,10.5,8.041,15.69,12.112,7.679,6.022,16.265,10.737,24.642,15.746l12.3.689.4-6.789C439.835,406.077,436.393,402.889,432.578,400.153Z" transform="translate(-390.433 -379.314)"/></g><g transform="translate(54.823 82.415)"><path class="o" d="M364.941,581.285a16.63,16.63,0,0,0,.51-3.233c.635-10.9-9.465-20.334-22.558-21.067a27.025,27.025,0,0,0-13.928,2.876,45.3,45.3,0,0,1,20.364,12,35.766,35.766,0,0,1,6.542,8.862Z" transform="translate(-328.965 -556.94)"/></g><g transform="translate(179.899 89.406)"><path class="o" d="M678.994,598.854a17.013,17.013,0,0,0,.5-3.234c.635-10.9-9.214-20.319-22-21.036a25.92,25.92,0,0,0-13.6,2.894,43.884,43.884,0,0,1,19.868,11.971,35.618,35.618,0,0,1,6.375,8.853Z" transform="translate(-643.895 -574.542)"/></g><g transform="translate(41.521 82.152)"><path class="e" d="M337.678,578.2A21.123,21.123,0,1,1,317.8,556.311,20.989,20.989,0,0,1,337.678,578.2Z" transform="translate(-295.471 -556.277)"/><g transform="translate(9.13 8.967)"><path class="n" d="M325.488,601.346a11.685,11.685,0,0,1-5.949-15.589,12.08,12.08,0,0,1,15.875-5.844,11.686,11.686,0,0,1,5.949,15.589A12.08,12.08,0,0,1,325.488,601.346Z" transform="translate(-318.46 -578.854)"/><path class="o" d="M340.569,626.059a9.884,9.884,0,0,0,6.356-2.211,6.893,6.893,0,0,1-4.877,4.027,11.359,11.359,0,0,1-2.24.2,11.547,11.547,0,0,1-2.374-.17,7.035,7.035,0,0,1-4.886-3.744c.3.615,2.624,1.167,3.2,1.3A19.443,19.443,0,0,0,340.569,626.059Z" transform="translate(-326.953 -605.978)"/></g></g><g transform="translate(166.119 89.132)"><path class="e" d="M651.4,595.775a21.123,21.123,0,1,1-19.881-21.889A20.989,20.989,0,0,1,651.4,595.775Z" transform="translate(-609.197 -573.852)"/><g transform="translate(9.131 8.967)"><path class="n" d="M639.216,618.922a11.685,11.685,0,0,1-5.949-15.589,12.08,12.08,0,0,1,15.875-5.844,11.686,11.686,0,0,1,5.949,15.59A12.08,12.08,0,0,1,639.216,618.922Z" transform="translate(-632.188 -596.43)"/><path class="o" d="M654.3,643.634a9.886,9.886,0,0,0,6.356-2.211,6.893,6.893,0,0,1-4.877,4.027,11.363,11.363,0,0,1-2.24.2,11.553,11.553,0,0,1-2.375-.17,7.036,7.036,0,0,1-4.886-3.744c.3.616,2.624,1.167,3.2,1.3A19.456,19.456,0,0,0,654.3,643.634Z" transform="translate(-640.68 -623.554)"/></g></g><path class="p" d="M487.459,500.963l-6.532-.366a2.44,2.44,0,0,1-2.325-2.557v0a2.452,2.452,0,0,1,2.607-2.28l6.532.366a2.44,2.44,0,0,1,2.325,2.557v0A2.453,2.453,0,0,1,487.459,500.963Z" transform="translate(-364.347 -437.638)"/></g><g transform="translate(230.603 104.768)"><path class="c" d="M665.621,425.438l-2.709,2.417-3.223-.2-.39.649.795.5-2.724.585-1.393,1.749.852,2.833,2.529,1.777,2.778-1.129,2.176-2.782,3.855-3.151Z" transform="translate(-655.976 -390.782)"/><path class="e" d="M673.727,374.269l13.18-10.079c1.183-.9,2.527-1.591,3.7-2.506,1.723-1.336,2.178-1.736,1.6-3.673-1.68-5.613-5.246-10.612-6.87-16.154a56.685,56.685,0,0,1,5.519-3.242c3.262-1.424,4.009.891,5.337,3.246,1.575,2.793,3.067,5.635,4.449,8.525,1.146,2.395,6.85,12.448,3.611,14.837-2.318,1.72-27.663,14.823-27.407,15.34Z" transform="translate(-666.677 -338.178)"/></g><g transform="translate(0 55.895)"><path class="e" d="M158.922,215.12c-24.988,12.236-41.55,3.545-43.822,2.219,0,0-.083-.168-.135-.08-.089-.054-.079.133-.079.133-1.347,2.232-11.637,17.645-39.546,18.65,0,0,8.084,47.686,28.455,62.866,21.759,16.213,37.256,18.883,37.312,18.812.083.035,12.531-9.5,23.557-34.049C174.978,260.709,158.922,215.12,158.922,215.12Z" transform="translate(-75.339 -215.12)"/><path class="i" d="M164.067,229.646c-22.7,11.007-37.674,3.327-39.729,2.154,0,0-.075-.15-.122-.071-.08-.047-.073.119-.073.119-1.23,1.995-10.621,15.774-35.922,16.783,0,0,7.127,42.471,25.528,55.919,19.654,14.363,33.965,17.8,34.017,17.732.075.031,11.122-9.637,21.218-31.558C178.429,270.216,164.067,229.646,164.067,229.646Z" transform="translate(-83.105 -223.877)"/><g class="q" transform="translate(4.55 3.613)"><path d="M124.34,232.674s-.008-.175.076-.125c.05-.083.128.074.128.074,2.11,1.2,17.232,8.959,40.233-1.607-1.219-4.205-2.137-6.8-2.137-6.8-22.7,11.007-37.675,3.327-39.729,2.154,0,0-.075-.15-.122-.071-.08-.047-.073.119-.073.119-1.23,1.995-10.621,15.775-35.922,16.783,0,0,.454,2.708,1.43,6.972C113.589,248.643,123.077,234.723,124.34,232.674Z" transform="translate(-86.795 -224.217)"/></g><path class="r" d="M175.474,263.2c-17.131,8.388-30.756,2.545-32.314,1.635,0,0-.057-.116-.092-.055-.061-.037-.054.091-.054.091-.923,1.53-9.917,13.012-29.052,13.7,0,0,7.481,31.779,21.448,42.186,14.918,11.116,25.543,12.946,25.581,12.9.057.024,8.591-6.516,16.151-23.344C184.212,294.571,175.474,263.2,175.474,263.2Z" transform="translate(-98.622 -244.105)"/></g><g transform="translate(303.168 101.053)"><path class="c" d="M847.715,341.525l-2.425-1.286-.657-2.3-.567-.111-.166.679-1.1-1.752-1.613-.536-1.84,1.3-.658,2.2,1.508,1.655,2.557.824,3.241,1.9Z" transform="translate(-838.688 -333.285)"/><path class="s" d="M854.006,334.413l14.275,9.787,14.605-15.376,1.741,17.442-14.233,9.183L851.4,339.027Z" transform="translate(-846.354 -328.823)"/></g><g transform="translate(316.854 75.121)"><g transform="translate(27.459 86.437)"><path class="t" d="M977.414,660.836l.243,2.355-4.362,2.936-2.545-2.064,2.059-2.645,4.361-2.937Z" transform="translate(-959.447 -588.061)"/><path class="c" d="M960.147,481.955l.739,7.151-6.541,24.569,6.073,39.481-4.47,1.511L944.16,516.122l-1.871-11.213.068-23.738Z" transform="translate(-942.289 -481.171)"/></g><g transform="translate(10.934 89.178)"><path class="c" d="M900.68,494.086l9.4,66.155h4.275l.769-42.405,7.779-29.764Z" transform="translate(-900.68 -488.071)"/><path class="t" d="M924.533,668.472v2.376l-4.622,2.376-2.311-2.376,2.311-2.376Z" transform="translate(-910.88 -596.825)"/></g><path class="i" d="M894.584,328.467A3.815,3.815,0,0,1,896,327.119c4.246-2.351,11.285-.28,15.893-.28,1.362,14.062,5.126,27.463,7.558,41.27q3.874,22,8.72,43.811c.183.823-12.824.408-14.051.429-12.513.207-28.893.164-40.966-3.546,7.706-20.289,10.519-42.121,16.587-62.937,1.066-3.655,2.331-7.255,3.29-10.939C893.581,332.79,893.5,330.213,894.584,328.467Z" transform="translate(-873.149 -301.187)"/><path class="e" d="M928.714,272.6a8.323,8.323,0,0,0-6.009,6.927,7.327,7.327,0,0,1-2.3-6.309,7.414,7.414,0,0,1,3.93-5.479,8.47,8.47,0,0,1,4.138,4.915Z" transform="translate(-901.601 -266.065)"/><path class="c" d="M924.542,281.6c1.637-8.475,12.432-7.01,15.529-.148,1.762,3.9-.084,9.428-3.606,12.143-.076.751-.175,2.821-.76,3.322-.633.543-2.628.026-3.41-.152a1.21,1.21,0,0,1-.6-.265,2.17,2.17,0,0,1-.234-1.285,7.335,7.335,0,0,1-1.76-.34,8.262,8.262,0,0,1-5.082-5.574A16.121,16.121,0,0,1,924.542,281.6Z" transform="translate(-903.872 -270.903)"/><path class="e" d="M943.487,307.863a2.309,2.309,0,0,1-.247-.023c-1.9-.321-4.96-.924-5.845-2.892-.906-2.016.7-5.674.969-7.77.4-3.186.538-6.4.694-9.6a14.424,14.424,0,0,0-2.452-8.2,46.2,46.2,0,0,0-5.54-6.744,6.826,6.826,0,0,1-1.932-3.018,4.406,4.406,0,0,1,1.127-3.692,6.423,6.423,0,0,1,4.98-2.389c7.14-.167,12.508,3.976,14.534,10.815,2.9,9.8-.723,19.152-.184,28.9a9.2,9.2,0,0,0,1.606,4.685C950.945,307.572,945.027,307.95,943.487,307.863Z" transform="translate(-906.855 -263.53)"/></g><g transform="translate(339.172 104.799)"><path class="c" d="M938.9,407.677l-2.871.921-2.358-1.218-.517.359.425.642-2.251-.461-1.651.854-.334,2.414,1.291,2.176,2.479.071,2.6-1.374,3.986-1.095Z" transform="translate(-929.344 -379.927)"/><path class="i" d="M958.6,362.965a4.5,4.5,0,0,0,2.15-3.623,19.422,19.422,0,0,0-.543-4.61,37.192,37.192,0,0,1,.334-14.674c1.079-4.784,6.769,1.232,7.477,3.39.784,2.392.563,5,.754,7.47q.385,4.981.364,9.982c-.008,2.107.521,7.084-1.742,8.289a6.329,6.329,0,0,1-2,.55c-1.079.172-13.967,1.766-14.169,1.141l-1.78-5.509C952.131,364.832,956.147,364.594,958.6,362.965Z" transform="translate(-941.464 -338.256)"/></g><g transform="translate(262.287 82.395)"><path class="e" d="M803.377,393.469,735.754,383.26l13.89-88.509,67.623,10.208Z" transform="translate(-735.754 -289.625)"/><path class="f" d="M749.959,399.211l1.012.153L810.4,410.2l11.573-83.94-2.9.364Z" transform="translate(-744.317 -308.618)"/><path class="u" d="M806.646,394.212l-60.8-9.179,12.85-81.887,60.8,9.178Z" transform="translate(-741.837 -294.686)"/><g transform="translate(33.742)"><path class="v" d="M843.242,288.283l-.409-.062.042-.271c.4-2.553-1.7-4.988-4.687-5.439l-3.937-.594c-2.989-.452-5.737,1.252-6.138,3.8l-.042.271-.41-.062c-2.989-.452-5.737,1.252-6.137,3.8l-.811,5.164,26.407,3.986.81-5.163C848.331,291.169,846.232,288.734,843.242,288.283Zm-4.329-.545-6.957-1.05a1.29,1.29,0,0,1-1.094-1.463,1.308,1.308,0,0,1,1.492-1.073l6.957,1.05a1.291,1.291,0,0,1,1.094,1.464A1.309,1.309,0,0,1,838.914,287.738Z" transform="translate(-820.713 -281.844)"/><path class="w" d="M847.12,315.011l-26.407-3.986.382-2.431L847.5,312.58Z" transform="translate(-820.713 -297.97)"/></g><g transform="translate(15.712 39.583)"><path class="x" d="M831.544,389.613l-45.692-6.9.189-1.205,45.692,6.9Z" transform="translate(-781.668 -381.51)"/><path class="x" d="M828.032,411.991l-45.692-6.9.189-1.205,45.692,6.9Z" transform="translate(-779.55 -395)"/><path class="x" d="M824.52,434.368l-45.692-6.9.19-1.205,45.692,6.9Z" transform="translate(-777.433 -408.49)"/><path class="x" d="M821.008,456.746l-45.692-6.9.189-1.205,45.692,6.9Z" transform="translate(-775.316 -421.981)"/></g><path class="x" d="M785.265,496.54l-16.8-2.535-.067.425,16.8,2.536Z" transform="translate(-755.436 -409.744)"/><path class="x" d="M862.077,489.107a3.156,3.156,0,0,0-2.485-.216,3.1,3.1,0,0,0-.326-.208,3.165,3.165,0,0,0-3.582.411,3.021,3.021,0,0,0-.789,3.375,3.13,3.13,0,0,0,2.986,1.9,3.018,3.018,0,0,0,.881-.158,3.192,3.192,0,0,0,1.929.583,3.109,3.109,0,0,0,2.944-2.57A3.063,3.063,0,0,0,862.077,489.107Zm-3.806,4.726a2.64,2.64,0,0,1-2.717-1.169,2.524,2.524,0,0,1,.212-2.942,2.647,2.647,0,0,1,2.889-.774,2.557,2.557,0,0,1,.394.18,3.011,3.011,0,0,0-1.342,3.766,2.974,2.974,0,0,0,.606.929Zm2.058-2.109a2.616,2.616,0,0,1-1.483,1.926,2.5,2.5,0,0,1-.27-3.5,1.232,1.232,0,1,1,1.753,1.578Zm.752,2.533a2.654,2.654,0,0,1-1.779-.289,3.153,3.153,0,0,0,1.524-2.169,3.08,3.08,0,0,0-.79-2.518,2.627,2.627,0,0,1,1.43.091,2.57,2.57,0,0,1,1.675,2.777A2.6,2.6,0,0,1,861.081,494.256Z" transform="translate(-807.446 -406.31)"/><g transform="translate(22.808 18.849)"><path class="y" d="M794.134,329.3l.746.113-.952,6.07-.746-.112Z" transform="translate(-793.182 -329.304)"/><path class="y" d="M804.3,330.838l.746.113-.952,6.07-.814-.123-2.192-5.285-.759,4.84-.746-.113.952-6.07.814.123,2.19,5.294Z" transform="translate(-797.043 -329.886)"/><path class="y" d="M818.922,336.706a1.486,1.486,0,0,1,.2,1.158,1.6,1.6,0,0,1-.722,1.143,2.251,2.251,0,0,1-1.61.247,2.22,2.22,0,0,1-1.407-.629,1.886,1.886,0,0,1-.4-1.261l.628-.016a1.22,1.22,0,0,0,1.21,1.307q1.381.208,1.55-.864a.881.881,0,0,0-.146-.729,2.149,2.149,0,0,0-.788-.51l-.535-.242a2.729,2.729,0,0,1-1.136-.78,1.533,1.533,0,0,1-.183-1.16,1.647,1.647,0,0,1,.7-1.15,2.1,2.1,0,0,1,1.555-.259,2.05,2.05,0,0,1,1.348.621,1.956,1.956,0,0,1,.376,1.257l-.627.016a1.168,1.168,0,0,0-1.116-1.293q-1.314-.2-1.483.875a.94.94,0,0,0,.124.73,1.825,1.825,0,0,0,.734.5l.56.246A3.019,3.019,0,0,1,818.922,336.706Z" transform="translate(-806.322 -331.483)"/><path class="y" d="M832.891,335.094l.746.113L833,339.273a3.026,3.026,0,0,1-.286.935,1.794,1.794,0,0,1-.432.569,1.418,1.418,0,0,1-.568.272,2.338,2.338,0,0,1-.606.075,5.921,5.921,0,0,1-1.246-.188,2.251,2.251,0,0,1-.552-.249,1.4,1.4,0,0,1-.454-.426,1.757,1.757,0,0,1-.237-.67,3.021,3.021,0,0,1,.014-.977l.638-4.066.746.113-.635,4.041a1.466,1.466,0,0,0,.265,1.351,1.385,1.385,0,0,0,.418.268,2.423,2.423,0,0,0,.513.129,2.369,2.369,0,0,0,.529.028,1.394,1.394,0,0,0,.481-.131q.514-.237.667-1.21Z" transform="translate(-814.524 -332.465)"/><path class="y" d="M844.066,336.841l1.873.283a2.577,2.577,0,0,1,.921.3,1.292,1.292,0,0,1,.521.521,2.035,2.035,0,0,1,.177,1.253,1.588,1.588,0,0,1-1.33,1.5,1.4,1.4,0,0,1,.321.61l.591,2.209-.8-.12-.547-2.1a.828.828,0,0,0-.275-.459,1.374,1.374,0,0,0-.548-.21l-.72-.108-.393,2.5-.746-.112Zm.277,3.1,1.094.165a1.121,1.121,0,0,0,.957-.208,1.451,1.451,0,0,0,.269-1.713,1.111,1.111,0,0,0-.849-.481l-1.094-.165Z" transform="translate(-823.283 -333.848)"/><path class="y" d="M857.846,339.384l.992.15,1.074,6.376-.738-.112-.315-1.92-2.357-.356-.889,1.738-.737-.111Zm.4.724-1.465,2.861,1.976.3Z" transform="translate(-830.374 -335.381)"/><path class="y" d="M874.9,341.495l.746.113-.952,6.07-.814-.123-2.191-5.285-.759,4.84-.746-.112.952-6.07.814.123,2.189,5.293Z" transform="translate(-839.601 -336.311)"/><path class="y" d="M889.2,344.364a1.534,1.534,0,0,0-1.246.255,2.1,2.1,0,0,0-.617,1.167c-.06.236-.117.527-.172.877s-.091.649-.106.9a3.3,3.3,0,0,0,.029.724,1.454,1.454,0,0,0,.2.575,1.515,1.515,0,0,0,1.111.61,1.245,1.245,0,0,0,1.562-1.16l.6.125a2.328,2.328,0,0,1-.736,1.349,1.889,1.889,0,0,1-1.525.285,2.048,2.048,0,0,1-1.775-1.136,2.876,2.876,0,0,1-.216-1.028,8.542,8.542,0,0,1,.419-2.669,2.905,2.905,0,0,1,.521-.918,2.082,2.082,0,0,1,2.039-.552,1.988,1.988,0,0,1,1.309.619,1.878,1.878,0,0,1,.367,1.26l-.619.017A1.2,1.2,0,0,0,889.2,344.364Z" transform="translate(-849.325 -337.995)"/><path class="y" d="M900.635,345.381l3.29.5-.091.582-2.543-.384-.331,2.112,2.365.357-.091.582-2.366-.357-.347,2.212,2.713.409-.091.582-3.459-.522Z" transform="translate(-857.386 -338.996)"/><path class="y" d="M818.729,362.644l-1.077-.162-.354,2.253-.746-.113.952-6.07,1.823.275a1.7,1.7,0,0,1,1.616,2.2A1.72,1.72,0,0,1,818.729,362.644Zm-.985-.745,1.034.156q1.212.184,1.421-1.143t-1-1.51l-1.034-.156Z" transform="translate(-807.27 -346.936)"/><path class="y" d="M833.534,366.587a1.747,1.747,0,0,1-.863.572,3.247,3.247,0,0,1-2.412-.36,1.657,1.657,0,0,1-.638-.8,3.278,3.278,0,0,1-.21-1.041,6.069,6.069,0,0,1,.077-1.184,8.456,8.456,0,0,1,.229-1.072,3.707,3.707,0,0,1,.36-.827,2.149,2.149,0,0,1,.536-.625,2.323,2.323,0,0,1,1.807-.34,2.07,2.07,0,0,1,1.812,1.227,3.172,3.172,0,0,1,.214,1.037,7.425,7.425,0,0,1-.39,2.487A3.2,3.2,0,0,1,833.534,366.587Zm-1.959.036a1.58,1.58,0,0,0,.815-.077,1.291,1.291,0,0,0,.608-.478,2.982,2.982,0,0,0,.38-.76,6.037,6.037,0,0,0,.234-.99,5.934,5.934,0,0,0,.081-1.014,3.052,3.052,0,0,0-.128-.841,1.385,1.385,0,0,0-1.24-.953,1.461,1.461,0,0,0-1.264.311,4.63,4.63,0,0,0-.647,4.124A1.507,1.507,0,0,0,831.575,366.623Z" transform="translate(-815.02 -348.333)"/><path class="y" d="M844.518,368.844l.952-6.07.746.112-.862,5.488,2.306.348-.091.582Z" transform="translate(-824.13 -349.481)"/><path class="y" d="M855.759,364.326l.746.113-.952,6.07-.746-.112Z" transform="translate(-830.332 -350.417)"/><path class="y" d="M864.348,366.333a1.533,1.533,0,0,0-1.247.255,2.1,2.1,0,0,0-.617,1.167q-.091.353-.173.876t-.106.9a3.272,3.272,0,0,0,.03.724,1.454,1.454,0,0,0,.2.575,1.516,1.516,0,0,0,1.111.61,1.245,1.245,0,0,0,1.562-1.16l.605.125a2.33,2.33,0,0,1-.737,1.349,1.887,1.887,0,0,1-1.524.285,2.049,2.049,0,0,1-1.775-1.136,2.881,2.881,0,0,1-.216-1.029,8.576,8.576,0,0,1,.419-2.669,2.916,2.916,0,0,1,.521-.917,2.081,2.081,0,0,1,2.039-.552,1.99,1.99,0,0,1,1.309.62,1.875,1.875,0,0,1,.366,1.259l-.619.017A1.2,1.2,0,0,0,864.348,366.333Z" transform="translate(-834.343 -351.239)"/><path class="y" d="M876.795,373.5l-.746-.112.331-2.112-1.286-4.246.763.115,1.009,3.472,2.027-3.014.763.115-2.529,3.671Z" transform="translate(-842.562 -352.046)"/></g></g></g></g></svg>